<?xml version="1.0" standalone="no"?>
<!DOCTYPE svg PUBLIC "-//W3C//DTD SVG 20010904//EN"
 "http://www.w3.org/TR/2001/REC-SVG-20010904/DTD/svg10.dtd">
<svg version="1.0" xmlns="http://www.w3.org/2000/svg"
 width="669.000000pt" height="494.000000pt" viewBox="0 0 669.000000 494.000000"
 preserveAspectRatio="xMidYMid meet">

<g transform="translate(0.000000,494.000000) scale(0.100000,-0.100000)"
fill="#000000" stroke="none">
<path d="M2264 4644 c31 -334 33 -512 5 -647 -21 -105 -41 -300 -32 -323 6
-16 -35 -94 -91 -173 -67 -94 -133 -268 -146 -383 -6 -51 -15 -121 -21 -156
-8 -46 -8 -92 0 -176 7 -62 9 -125 5 -139 -4 -17 -32 -47 -73 -79 -73 -58
-172 -158 -165 -169 2 -4 -2 -9 -10 -12 -21 -8 -104 -158 -137 -248 -129 -353
-95 -745 93 -1059 80 -133 261 -335 371 -413 171 -121 286 -167 417 -167 80 0
81 0 75 23 -4 12 -20 41 -36 64 -35 49 -89 162 -89 184 0 16 42 60 75 77 42
21 140 52 167 52 l28 0 0 -124 c0 -68 2 -131 5 -138 4 -10 17 -13 38 -11 79
10 73 0 80 135 8 145 15 188 32 188 18 0 24 -31 32 -167 l6 -121 28 -6 c53
-10 59 -1 60 88 1 44 4 110 8 146 5 58 9 65 29 68 34 5 52 -49 59 -184 5 -103
8 -114 25 -114 47 0 58 17 58 90 0 38 4 80 10 94 l10 26 160 0 161 0 -7 -79
c-3 -44 -4 -91 0 -105 6 -23 12 -26 46 -26 l40 0 0 60 c0 33 7 93 17 135 14
65 20 76 40 81 13 4 27 4 30 0 3 -3 8 -65 10 -138 2 -73 5 -134 7 -135 2 -2
20 -7 40 -10 l36 -6 0 59 c0 80 17 180 37 218 l17 31 7 -35 c5 -19 11 -90 15
-158 8 -135 0 -123 81 -136 29 -5 34 -2 39 21 4 14 4 78 0 141 l-6 115 61 -7
c100 -10 182 -55 214 -116 12 -23 10 -34 -15 -99 -16 -40 -47 -95 -69 -121
-23 -27 -41 -51 -41 -54 0 -13 160 -5 211 10 71 21 192 80 223 109 14 13 26
21 29 19 8 -8 191 162 257 239 78 90 174 227 165 235 -2 3 2 10 10 16 7 6 15
18 17 26 2 8 8 20 14 26 16 18 70 187 89 278 58 287 5 615 -139 856 -39 65
-197 240 -217 240 -4 0 -21 24 -37 53 -27 48 -29 57 -22 112 13 99 11 257 -5
348 -22 127 -57 228 -125 359 -65 126 -64 124 -55 243 5 54 0 140 -14 265 -17
157 -19 212 -12 365 5 99 8 196 8 215 0 19 4 65 8 103 4 37 5 67 3 67 -3 0
-20 -21 -38 -47 -19 -27 -63 -83 -98 -125 -38 -46 -60 -82 -56 -89 4 -7 3 -9
-3 -6 -6 4 -51 -44 -99 -105 -49 -62 -136 -171 -192 -243 -57 -71 -107 -136
-111 -143 -10 -18 -23 -17 -196 2 -109 13 -241 17 -490 18 l-340 1 -37 42
c-20 23 -58 68 -85 101 -26 32 -50 61 -53 64 -3 3 -22 26 -42 52 -19 26 -39
44 -43 40 -5 -4 -5 -2 -2 4 6 11 -1 21 -168 229 -55 69 -117 146 -137 173 -55
69 -62 67 -54 -14z m1406 -829 c41 -9 91 -18 110 -20 19 -2 46 -7 60 -9 29 -6
186 -83 203 -100 7 -7 44 -37 82 -68 39 -31 77 -65 85 -77 8 -11 20 -21 26
-21 7 0 18 -13 26 -30 7 -16 16 -30 20 -30 20 0 5 -41 -24 -65 -40 -34 -281
-145 -314 -145 -22 0 -323 -157 -352 -183 -108 -101 -141 -136 -156 -165 -9
-18 -20 -32 -24 -32 -4 0 -20 -20 -36 -45 -15 -25 -32 -45 -36 -43 -4 2 -36
39 -70 83 -35 44 -99 115 -143 158 -79 76 -88 82 -351 212 -273 135 -366 187
-366 204 0 18 149 158 223 209 126 87 236 136 342 153 255 41 543 47 695 14z
m722 -735 c13 -67 8 -357 -8 -457 -17 -109 -54 -226 -84 -263 -11 -14 -36 -50
-57 -80 -48 -70 -69 -89 -178 -154 -119 -70 -240 -115 -400 -148 -79 -16 -613
-17 -712 -1 -73 11 -223 73 -293 120 -127 85 -264 242 -292 334 -6 21 -14 36
-18 34 -5 -3 -11 7 -15 23 -3 15 -15 45 -25 67 -37 79 -49 155 -52 332 -3 166
-2 173 19 194 19 20 25 21 52 9 26 -10 29 -15 19 -27 -19 -23 1 -195 37 -321
33 -113 170 -322 211 -322 7 0 17 -7 21 -14 5 -8 35 -27 68 -43 56 -25 71 -27
210 -30 83 -2 154 -3 158 -3 5 0 6 -4 3 -9 -3 -5 23 -42 57 -82 34 -41 96
-114 136 -164 41 -49 77 -90 81 -90 9 0 110 122 110 134 0 5 4 11 9 13 5 2 46
48 92 103 l82 100 146 0 c142 0 148 1 211 31 101 48 158 106 233 236 58 100
130 423 104 465 -3 5 5 15 18 21 14 7 25 16 25 22 0 25 26 1 32 -30z m-161
-202 c-39 -159 -102 -291 -168 -353 -61 -57 -151 -101 -228 -110 -33 -4 -71
-9 -85 -11 -100 -14 -212 97 -235 235 l-7 43 73 70 c58 54 99 82 194 129 66
33 127 64 135 69 22 13 260 88 298 94 19 2 37 8 40 11 18 19 10 -67 -17 -177z
m-1766 153 c28 -11 80 -25 115 -31 85 -15 222 -59 235 -75 5 -7 42 -24 81 -39
39 -15 100 -47 135 -72 35 -25 75 -54 88 -63 22 -15 24 -23 22 -82 -4 -118
-46 -197 -129 -242 -117 -63 -325 -13 -427 104 -46 52 -111 184 -140 284 -22
78 -45 235 -34 235 2 0 27 -9 54 -19z m807 -479 c11 -26 27 -67 35 -92 8 -25
19 -49 24 -54 14 -15 46 22 58 67 19 74 71 139 71 90 1 -27 36 -100 69 -142
28 -36 29 -57 5 -76 -6 -5 -53 -62 -104 -125 -50 -63 -95 -116 -99 -118 -5 -1
-28 23 -52 54 -52 68 -86 109 -116 141 -12 13 -20 23 -17 23 3 0 -6 14 -20 31
l-26 31 31 40 c35 44 78 141 79 176 0 37 38 9 62 -46z m-1212 -118 c40 -119
200 -328 305 -397 96 -64 114 -75 190 -109 99 -46 234 -82 385 -104 136 -19
624 -31 600 -15 -11 8 -5 9 22 4 57 -9 369 43 353 59 -3 3 7 3 22 1 19 -3 24
-2 15 5 -11 7 -11 10 2 15 9 4 16 1 16 -6 0 -9 2 -9 8 0 7 12 76 46 97 49 6 0
18 4 28 9 9 4 23 5 31 2 8 -3 17 1 20 8 3 8 11 12 18 10 20 -8 174 88 170 106
-2 7 0 11 4 7 4 -4 23 11 43 34 67 77 78 88 92 88 11 0 11 2 -1 10 -13 9 -13
10 0 11 8 1 18 1 22 0 4 0 5 6 2 13 -3 9 5 22 20 31 14 10 23 21 20 26 -3 5
-1 9 4 9 6 0 31 40 56 90 l46 89 35 -20 c61 -36 177 -184 234 -296 38 -76 79
-196 85 -249 23 -198 18 -299 -25 -499 -15 -65 -76 -197 -128 -273 -22 -34
-41 -65 -41 -71 0 -5 -3 -11 -7 -13 -5 -1 -32 -32 -62 -68 -117 -140 -248
-251 -344 -289 -31 -13 -60 -27 -63 -32 -3 -5 -10 -9 -15 -9 -6 0 9 37 34 83
66 122 116 322 117 463 0 70 -35 262 -55 302 -16 32 -17 32 -88 32 -40 0 -67
-4 -61 -8 6 -4 29 -43 50 -87 l39 -80 -1 -130 c-1 -129 -11 -187 -49 -279
l-16 -37 -44 25 c-58 34 -153 56 -249 56 -69 0 -82 3 -109 26 -26 22 -39 25
-106 25 -42 0 -104 1 -138 2 -56 2 -64 -1 -93 -28 -18 -16 -36 -40 -41 -52 -8
-23 -11 -23 -189 -23 -113 0 -180 4 -180 10 0 5 -17 28 -37 51 -36 40 -38 41
-87 35 -76 -9 -88 -9 -126 1 -55 13 -97 5 -128 -26 -25 -26 -35 -28 -127 -33
-70 -4 -122 -14 -175 -32 -41 -14 -79 -27 -84 -28 -12 -3 -30 46 -58 157 -38
150 -22 295 43 385 43 59 32 76 -47 73 -51 -2 -63 -6 -85 -31 -25 -28 -26 -35
-33 -189 -8 -205 9 -336 66 -476 56 -140 77 -207 64 -207 -29 0 -254 178 -332
264 -170 185 -278 368 -325 551 -21 79 -24 113 -23 270 0 200 11 255 80 404
32 69 127 211 178 265 34 37 116 106 126 106 5 0 18 -29 30 -66z"/>
<path d="M3754 2796 c-65 -28 -95 -97 -74 -171 17 -60 48 -87 109 -93 93 -9
136 21 162 110 11 40 -15 122 -48 147 -30 25 -101 28 -149 7z"/>
<path d="M2876 2801 c-4 -6 -11 -9 -16 -6 -13 8 -62 -37 -76 -71 -18 -44 -18
-78 3 -121 44 -93 189 -99 243 -10 38 62 14 168 -44 195 -40 20 -102 27 -110
13z"/>
</g>
</svg>
